<mxfile host="app.diagrams.net" modified="2023-11-22T08:44:37.755Z" agent="Mozilla/5.0 (Windows NT 10.0; Win64; x64) AppleWebKit/537.36 (KHTML, like Gecko) Chrome/116.0.5845.660 YaBrowser/23.9.5.660 Yowser/2.5 Safari/537.36" etag="SVwv0zT771z1rLCpMmUL" version="22.1.3" type="github">
  <diagram name="Page-1" id="FML4WFdm6DSJ3I9iHwKf">
    <mxGraphModel dx="2253" dy="-2972" grid="0" gridSize="10" guides="1" tooltips="1" connect="1" arrows="1" fold="1" page="1" pageScale="1" pageWidth="827" pageHeight="1169" math="0" shadow="0">
      <root>
        <mxCell id="0" />
        <mxCell id="1" parent="0" />
        <mxCell id="l-qg_TUnTuqJ-js1dSiP-1" value="" style="points=[[0.25,0.25,0],[0.5,0,0],[0.75,0.25,0],[1,0.5,0],[0.75,0.75,0],[0.5,1,0],[0.25,0.75,0],[0,0.5,0]];shape=mxgraph.bpmn.gateway2;html=1;verticalLabelPosition=bottom;labelBackgroundColor=#ffffff;verticalAlign=top;align=center;perimeter=rhombusPerimeter;outlineConnect=0;outline=none;symbol=none;gwType=exclusive;fontSize=14;fillColor=#fff2cc;strokeColor=#d6b656;" parent="1" vertex="1">
          <mxGeometry x="1255.12" y="4800" width="50" height="50" as="geometry" />
        </mxCell>
        <mxCell id="l-qg_TUnTuqJ-js1dSiP-2" value="" style="points=[[0.25,0.25,0],[0.5,0,0],[0.75,0.25,0],[1,0.5,0],[0.75,0.75,0],[0.5,1,0],[0.25,0.75,0],[0,0.5,0]];shape=mxgraph.bpmn.gateway2;html=1;verticalLabelPosition=bottom;labelBackgroundColor=#ffffff;verticalAlign=top;align=center;perimeter=rhombusPerimeter;outlineConnect=0;outline=none;symbol=none;gwType=parallel;fontSize=14;fillColor=#fff2cc;strokeColor=#d6b656;" parent="1" vertex="1">
          <mxGeometry x="1353.12" y="4800" width="50" height="50" as="geometry" />
        </mxCell>
        <mxCell id="l-qg_TUnTuqJ-js1dSiP-3" value="" style="points=[[0.145,0.145,0],[0.5,0,0],[0.855,0.145,0],[1,0.5,0],[0.855,0.855,0],[0.5,1,0],[0.145,0.855,0],[0,0.5,0]];shape=mxgraph.bpmn.event;html=1;verticalLabelPosition=bottom;labelBackgroundColor=#ffffff;verticalAlign=top;align=center;perimeter=ellipsePerimeter;outlineConnect=0;aspect=fixed;outline=standard;symbol=general;fillColor=#d5e8d4;strokeColor=#82b366;fontSize=14;" parent="1" vertex="1">
          <mxGeometry x="973.25" y="4798" width="50" height="50" as="geometry" />
        </mxCell>
        <mxCell id="l-qg_TUnTuqJ-js1dSiP-4" value="" style="points=[[0.145,0.145,0],[0.5,0,0],[0.855,0.145,0],[1,0.5,0],[0.855,0.855,0],[0.5,1,0],[0.145,0.855,0],[0,0.5,0]];shape=mxgraph.bpmn.event;html=1;verticalLabelPosition=bottom;labelBackgroundColor=#ffffff;verticalAlign=top;align=center;perimeter=ellipsePerimeter;outlineConnect=0;aspect=fixed;outline=throwing;symbol=general;fillColor=#fff2cc;strokeColor=#d6b656;fontSize=14;" parent="1" vertex="1">
          <mxGeometry x="1071.25" y="4798" width="50" height="50" as="geometry" />
        </mxCell>
        <mxCell id="l-qg_TUnTuqJ-js1dSiP-5" value="&lt;b style=&quot;border-color: var(--border-color);&quot;&gt;Text&lt;br style=&quot;border-color: var(--border-color);&quot;&gt;&lt;/b&gt;&lt;br style=&quot;border-color: var(--border-color);&quot;&gt;Текст" style="points=[[0.25,0,0],[0.5,0,0],[0.75,0,0],[1,0.25,0],[1,0.5,0],[1,0.75,0],[0.75,1,0],[0.5,1,0],[0.25,1,0],[0,0.75,0],[0,0.5,0],[0,0.25,0]];shape=mxgraph.bpmn.task;whiteSpace=wrap;rectStyle=rounded;size=10;html=1;container=1;expand=0;collapsible=0;taskMarker=manual;fontSize=14;" parent="1" vertex="1">
          <mxGeometry x="842" y="5548" width="215" height="125" as="geometry" />
        </mxCell>
        <mxCell id="l-qg_TUnTuqJ-js1dSiP-6" value="&lt;b&gt;Text&lt;br&gt;&lt;/b&gt;&lt;br style=&quot;font-size: 14px;&quot;&gt;Текст&lt;br&gt;&lt;font color=&quot;#0000ff&quot;&gt;&lt;br&gt;SOP # xxx&lt;/font&gt;" style="points=[[0.25,0,0],[0.5,0,0],[0.75,0,0],[1,0.25,0],[1,0.5,0],[1,0.75,0],[0.75,1,0],[0.5,1,0],[0.25,1,0],[0,0.75,0],[0,0.5,0],[0,0.25,0]];shape=mxgraph.bpmn.task;whiteSpace=wrap;rectStyle=rounded;size=10;html=1;container=1;expand=0;collapsible=0;taskMarker=service;fillColor=#dae8fc;strokeColor=#6c8ebf;fontSize=14;verticalAlign=middle;" parent="1" vertex="1">
          <mxGeometry x="1120.5" y="5548" width="215" height="125" as="geometry" />
        </mxCell>
        <mxCell id="l-qg_TUnTuqJ-js1dSiP-7" style="edgeStyle=orthogonalEdgeStyle;rounded=0;orthogonalLoop=1;jettySize=auto;html=1;dashed=1;dashPattern=12 12;fontSize=14;" parent="1" edge="1">
          <mxGeometry relative="1" as="geometry">
            <mxPoint x="1319.38" y="5032" as="sourcePoint" />
            <mxPoint x="1433.63" y="5032" as="targetPoint" />
          </mxGeometry>
        </mxCell>
        <mxCell id="l-qg_TUnTuqJ-js1dSiP-8" value="" style="shape=mxgraph.bpmn.data;labelPosition=center;verticalLabelPosition=bottom;align=center;verticalAlign=top;size=15;html=1;fillColor=#f5f5f5;fontColor=#333333;strokeColor=#666666;fontSize=14;" parent="1" vertex="1">
          <mxGeometry x="1070.5" y="5030" width="40" height="60" as="geometry" />
        </mxCell>
        <mxCell id="l-qg_TUnTuqJ-js1dSiP-9" value="&lt;b&gt;Текст&lt;/b&gt;&lt;br&gt;Текст" style="text;html=1;strokeColor=none;fillColor=none;align=center;verticalAlign=middle;whiteSpace=wrap;rounded=0;fontSize=14;" parent="1" vertex="1">
          <mxGeometry x="1055.25" y="5096" width="70.5" height="36" as="geometry" />
        </mxCell>
        <mxCell id="l-qg_TUnTuqJ-js1dSiP-10" value="&lt;font style=&quot;&quot;&gt;&lt;b style=&quot;border-color: var(--border-color);&quot;&gt;Text&lt;br style=&quot;border-color: var(--border-color);&quot;&gt;&lt;/b&gt;&lt;br style=&quot;border-color: var(--border-color);&quot;&gt;Текст&lt;br style=&quot;font-size: 14px;&quot;&gt;&lt;/font&gt;" style="points=[[0.25,0,0],[0.5,0,0],[0.75,0,0],[1,0.25,0],[1,0.5,0],[1,0.75,0],[0.75,1,0],[0.5,1,0],[0.25,1,0],[0,0.75,0],[0,0.5,0],[0,0.25,0]];shape=mxgraph.bpmn.task;whiteSpace=wrap;rectStyle=rounded;size=10;html=1;container=1;expand=0;collapsible=0;taskMarker=user;fontSize=14;" parent="1" vertex="1">
          <mxGeometry x="1399" y="5548" width="215" height="125" as="geometry" />
        </mxCell>
        <UserObject label="&lt;b style=&quot;border-color: var(--border-color);&quot;&gt;Text&lt;br style=&quot;border-color: var(--border-color);&quot;&gt;&lt;/b&gt;&lt;br style=&quot;border-color: var(--border-color);&quot;&gt;Текст" linkTarget="_blank" id="l-qg_TUnTuqJ-js1dSiP-11">
          <mxCell style="points=[[0.25,0,0],[0.5,0,0],[0.75,0,0],[1,0.25,0],[1,0.5,0],[1,0.75,0],[0.75,1,0],[0.5,1,0],[0.25,1,0],[0,0.75,0],[0,0.5,0],[0,0.25,0]];shape=mxgraph.bpmn.task;whiteSpace=wrap;rectStyle=rounded;size=10;html=1;container=1;expand=0;collapsible=0;taskMarker=abstract;isLoopSub=1;fontSize=14;" parent="1" vertex="1">
            <mxGeometry x="844.5" y="5271" width="215" height="125" as="geometry" />
          </mxCell>
        </UserObject>
        <mxCell id="l-qg_TUnTuqJ-js1dSiP-12" value="&lt;i&gt;&lt;b&gt;Text&lt;/b&gt;&lt;br&gt;&lt;/i&gt;&lt;i style=&quot;&quot;&gt;Текст&lt;br&gt;&lt;/i&gt;" style="text;html=1;strokeColor=none;fillColor=none;align=center;verticalAlign=middle;whiteSpace=wrap;rounded=0;fontSize=14;" parent="1" vertex="1">
          <mxGeometry x="1063" y="4858" width="66.5" height="48" as="geometry" />
        </mxCell>
        <mxCell id="l-qg_TUnTuqJ-js1dSiP-13" value="&lt;i&gt;&lt;b&gt;Text&lt;/b&gt;&lt;br&gt;&lt;/i&gt;&lt;i style=&quot;&quot;&gt;Текст&lt;br&gt;&lt;/i&gt;" style="text;html=1;strokeColor=none;fillColor=none;align=center;verticalAlign=middle;whiteSpace=wrap;rounded=0;fontSize=14;" parent="1" vertex="1">
          <mxGeometry x="965" y="4858" width="66.5" height="48" as="geometry" />
        </mxCell>
        <mxCell id="l-qg_TUnTuqJ-js1dSiP-14" style="edgeStyle=orthogonalEdgeStyle;rounded=0;orthogonalLoop=1;jettySize=auto;html=1;" parent="1" edge="1">
          <mxGeometry relative="1" as="geometry">
            <mxPoint x="1321" y="5102" as="sourcePoint" />
            <mxPoint x="1432" y="5102" as="targetPoint" />
          </mxGeometry>
        </mxCell>
        <mxCell id="l-qg_TUnTuqJ-js1dSiP-15" value="" style="points=[[0.145,0.145,0],[0.5,0,0],[0.855,0.145,0],[1,0.5,0],[0.855,0.855,0],[0.5,1,0],[0.145,0.855,0],[0,0.5,0]];shape=mxgraph.bpmn.event;html=1;verticalLabelPosition=bottom;labelBackgroundColor=#ffffff;verticalAlign=top;align=center;perimeter=ellipsePerimeter;outlineConnect=0;aspect=fixed;outline=end;symbol=terminate2;fillColor=#f8cecc;strokeColor=#b85450;fontSize=14;" parent="1" vertex="1">
          <mxGeometry x="1168.75" y="4798" width="50" height="50" as="geometry" />
        </mxCell>
        <mxCell id="l-qg_TUnTuqJ-js1dSiP-16" value="&lt;b style=&quot;border-color: var(--border-color); font-size: 14px;&quot;&gt;Text&lt;br style=&quot;border-color: var(--border-color);&quot;&gt;&lt;/b&gt;&lt;br style=&quot;border-color: var(--border-color); font-size: 14px;&quot;&gt;Текст" style="points=[[0.25,0,0],[0.5,0,0],[0.75,0,0],[1,0.25,0],[1,0.5,0],[1,0.75,0],[0.75,1,0],[0.5,1,0],[0.25,1,0],[0,0.75,0],[0,0.5,0],[0,0.25,0]];shape=mxgraph.bpmn.task;whiteSpace=wrap;rectStyle=rounded;size=10;html=1;container=1;expand=0;collapsible=0;taskMarker=send;" parent="1" vertex="1">
          <mxGeometry x="1120.5" y="5271" width="215" height="125" as="geometry" />
        </mxCell>
        <mxCell id="l-qg_TUnTuqJ-js1dSiP-17" value="&lt;b style=&quot;border-color: var(--border-color); font-size: 14px;&quot;&gt;Text&lt;br style=&quot;border-color: var(--border-color);&quot;&gt;&lt;/b&gt;&lt;br style=&quot;border-color: var(--border-color); font-size: 14px;&quot;&gt;Текст" style="points=[[0.25,0,0],[0.5,0,0],[0.75,0,0],[1,0.25,0],[1,0.5,0],[1,0.75,0],[0.75,1,0],[0.5,1,0],[0.25,1,0],[0,0.75,0],[0,0.5,0],[0,0.25,0]];shape=mxgraph.bpmn.task;whiteSpace=wrap;rectStyle=rounded;size=10;html=1;container=1;expand=0;collapsible=0;taskMarker=receive;" parent="1" vertex="1">
          <mxGeometry x="1399" y="5271" width="215" height="125" as="geometry" />
        </mxCell>
        <mxCell id="l-qg_TUnTuqJ-js1dSiP-18" value="" style="points=[[0.25,0.25,0],[0.5,0,0],[0.75,0.25,0],[1,0.5,0],[0.75,0.75,0],[0.5,1,0],[0.25,0.75,0],[0,0.5,0]];shape=mxgraph.bpmn.gateway2;html=1;verticalLabelPosition=bottom;labelBackgroundColor=#ffffff;verticalAlign=top;align=center;perimeter=rhombusPerimeter;outlineConnect=0;outline=end;symbol=general;fillColor=#fff2cc;strokeColor=#d6b656;" parent="1" vertex="1">
          <mxGeometry x="1450.62" y="4800" width="50" height="50" as="geometry" />
        </mxCell>
        <mxCell id="l-qg_TUnTuqJ-js1dSiP-19" value="События: стартовое, промежуточное, завершающее" style="text;html=1;strokeColor=default;fillColor=none;align=center;verticalAlign=middle;whiteSpace=wrap;rounded=0;perimeterSpacing=1;strokeWidth=2;" parent="1" vertex="1">
          <mxGeometry x="977.75" y="4751" width="237" height="30" as="geometry" />
        </mxCell>
        <mxCell id="l-qg_TUnTuqJ-js1dSiP-20" value="Шлюзы: исключительный, параллельный, неисключительный" style="text;html=1;strokeColor=default;fillColor=none;align=center;verticalAlign=middle;whiteSpace=wrap;rounded=0;perimeterSpacing=1;strokeWidth=2;" parent="1" vertex="1">
          <mxGeometry x="1259.62" y="4751" width="237" height="30" as="geometry" />
        </mxCell>
        <mxCell id="l-qg_TUnTuqJ-js1dSiP-21" value="Ручное действие или задача, выполняемая вручную" style="text;html=1;strokeColor=default;fillColor=none;align=center;verticalAlign=middle;whiteSpace=wrap;rounded=0;perimeterSpacing=1;strokeWidth=2;" parent="1" vertex="1">
          <mxGeometry x="833.5" y="5482" width="237" height="30" as="geometry" />
        </mxCell>
        <mxCell id="l-qg_TUnTuqJ-js1dSiP-22" value="СОП" style="text;html=1;strokeColor=default;fillColor=none;align=center;verticalAlign=middle;whiteSpace=wrap;rounded=0;perimeterSpacing=1;strokeWidth=2;" parent="1" vertex="1">
          <mxGeometry x="1109.5" y="5482" width="237" height="30" as="geometry" />
        </mxCell>
        <mxCell id="l-qg_TUnTuqJ-js1dSiP-23" value="Пользовательское действие или задача" style="text;html=1;strokeColor=default;fillColor=none;align=center;verticalAlign=middle;whiteSpace=wrap;rounded=0;perimeterSpacing=1;strokeWidth=2;" parent="1" vertex="1">
          <mxGeometry x="1386" y="5482" width="237" height="30" as="geometry" />
        </mxCell>
        <mxCell id="l-qg_TUnTuqJ-js1dSiP-24" value="Подпроцесс, отображаемый в свёрнутом виде" style="text;html=1;strokeColor=default;fillColor=none;align=center;verticalAlign=middle;whiteSpace=wrap;rounded=0;perimeterSpacing=1;strokeWidth=2;" parent="1" vertex="1">
          <mxGeometry x="831" y="5208" width="237" height="30" as="geometry" />
        </mxCell>
        <mxCell id="l-qg_TUnTuqJ-js1dSiP-25" value="Задача, содержащая отправку сообщения" style="text;html=1;strokeColor=default;fillColor=none;align=center;verticalAlign=middle;whiteSpace=wrap;rounded=0;perimeterSpacing=1;strokeWidth=2;" parent="1" vertex="1">
          <mxGeometry x="1109.5" y="5208" width="237" height="30" as="geometry" />
        </mxCell>
        <mxCell id="l-qg_TUnTuqJ-js1dSiP-26" value="Задача, содержащая получение сообщения" style="text;html=1;strokeColor=default;fillColor=none;align=center;verticalAlign=middle;whiteSpace=wrap;rounded=0;perimeterSpacing=1;strokeWidth=2;" parent="1" vertex="1">
          <mxGeometry x="1388" y="5208" width="237" height="30" as="geometry" />
        </mxCell>
        <mxCell id="l-qg_TUnTuqJ-js1dSiP-27" value="Поток сообщений" style="text;html=1;strokeColor=default;fillColor=none;align=center;verticalAlign=middle;whiteSpace=wrap;rounded=0;perimeterSpacing=1;strokeWidth=2;" parent="1" vertex="1">
          <mxGeometry x="1258" y="4983" width="237" height="30" as="geometry" />
        </mxCell>
        <mxCell id="l-qg_TUnTuqJ-js1dSiP-28" value="Поток операций" style="text;html=1;strokeColor=default;fillColor=none;align=center;verticalAlign=middle;whiteSpace=wrap;rounded=0;perimeterSpacing=1;strokeWidth=2;" parent="1" vertex="1">
          <mxGeometry x="1258" y="5052" width="237" height="30" as="geometry" />
        </mxCell>
        <mxCell id="l-qg_TUnTuqJ-js1dSiP-30" value="Объект данных, документ" style="text;html=1;strokeColor=default;fillColor=none;align=center;verticalAlign=middle;whiteSpace=wrap;rounded=0;perimeterSpacing=1;strokeWidth=2;" parent="1" vertex="1">
          <mxGeometry x="972" y="4983" width="237" height="30" as="geometry" />
        </mxCell>
        <mxCell id="1LOvOZ-YNYVQgD99sBW3-1" value="" style="points=[[0.25,0.25,0],[0.5,0,0],[0.75,0.25,0],[1,0.5,0],[0.75,0.75,0],[0.5,1,0],[0.25,0.75,0],[0,0.5,0]];shape=mxgraph.bpmn.gateway2;html=1;verticalLabelPosition=bottom;labelBackgroundColor=#ffffff;verticalAlign=top;align=center;perimeter=rhombusPerimeter;outlineConnect=0;outline=none;symbol=none;gwType=exclusive;fontSize=14;fillColor=#fff2cc;strokeColor=#d6b656;sketch=1;curveFitting=1;jiggle=2;fillStyle=solid;" vertex="1" parent="1">
          <mxGeometry x="2107.12" y="4804" width="50" height="50" as="geometry" />
        </mxCell>
        <mxCell id="1LOvOZ-YNYVQgD99sBW3-2" value="" style="points=[[0.25,0.25,0],[0.5,0,0],[0.75,0.25,0],[1,0.5,0],[0.75,0.75,0],[0.5,1,0],[0.25,0.75,0],[0,0.5,0]];shape=mxgraph.bpmn.gateway2;html=1;verticalLabelPosition=bottom;labelBackgroundColor=#ffffff;verticalAlign=top;align=center;perimeter=rhombusPerimeter;outlineConnect=0;outline=none;symbol=none;gwType=parallel;fontSize=14;fillColor=#fff2cc;strokeColor=#d6b656;sketch=1;curveFitting=1;jiggle=2;fillStyle=solid;" vertex="1" parent="1">
          <mxGeometry x="2205.12" y="4804" width="50" height="50" as="geometry" />
        </mxCell>
        <mxCell id="1LOvOZ-YNYVQgD99sBW3-3" value="" style="points=[[0.145,0.145,0],[0.5,0,0],[0.855,0.145,0],[1,0.5,0],[0.855,0.855,0],[0.5,1,0],[0.145,0.855,0],[0,0.5,0]];shape=mxgraph.bpmn.event;html=1;verticalLabelPosition=bottom;labelBackgroundColor=#ffffff;verticalAlign=top;align=center;perimeter=ellipsePerimeter;outlineConnect=0;aspect=fixed;outline=standard;symbol=general;fillColor=#d5e8d4;strokeColor=#82b366;fontSize=14;sketch=1;curveFitting=1;jiggle=2;fillStyle=solid;" vertex="1" parent="1">
          <mxGeometry x="1825.25" y="4802" width="50" height="50" as="geometry" />
        </mxCell>
        <mxCell id="1LOvOZ-YNYVQgD99sBW3-4" value="" style="points=[[0.145,0.145,0],[0.5,0,0],[0.855,0.145,0],[1,0.5,0],[0.855,0.855,0],[0.5,1,0],[0.145,0.855,0],[0,0.5,0]];shape=mxgraph.bpmn.event;html=1;verticalLabelPosition=bottom;labelBackgroundColor=#ffffff;verticalAlign=top;align=center;perimeter=ellipsePerimeter;outlineConnect=0;aspect=fixed;outline=throwing;symbol=general;fillColor=#fff2cc;strokeColor=#d6b656;fontSize=14;sketch=1;curveFitting=1;jiggle=2;fillStyle=solid;" vertex="1" parent="1">
          <mxGeometry x="1923.25" y="4802" width="50" height="50" as="geometry" />
        </mxCell>
        <mxCell id="1LOvOZ-YNYVQgD99sBW3-5" value="&lt;b style=&quot;border-color: var(--border-color);&quot;&gt;Text&lt;br style=&quot;border-color: var(--border-color);&quot;&gt;&lt;/b&gt;&lt;br style=&quot;border-color: var(--border-color);&quot;&gt;Текст" style="points=[[0.25,0,0],[0.5,0,0],[0.75,0,0],[1,0.25,0],[1,0.5,0],[1,0.75,0],[0.75,1,0],[0.5,1,0],[0.25,1,0],[0,0.75,0],[0,0.5,0],[0,0.25,0]];shape=mxgraph.bpmn.task;whiteSpace=wrap;rectStyle=rounded;size=10;html=1;container=1;expand=0;collapsible=0;taskMarker=manual;fontSize=14;sketch=1;curveFitting=1;jiggle=2;fillStyle=solid;" vertex="1" parent="1">
          <mxGeometry x="1694" y="5552" width="215" height="125" as="geometry" />
        </mxCell>
        <mxCell id="1LOvOZ-YNYVQgD99sBW3-6" value="&lt;b&gt;Text&lt;br&gt;&lt;/b&gt;&lt;br style=&quot;font-size: 14px;&quot;&gt;Текст&lt;br&gt;&lt;font color=&quot;#0000ff&quot;&gt;&lt;br&gt;SOP # xxx&lt;/font&gt;" style="points=[[0.25,0,0],[0.5,0,0],[0.75,0,0],[1,0.25,0],[1,0.5,0],[1,0.75,0],[0.75,1,0],[0.5,1,0],[0.25,1,0],[0,0.75,0],[0,0.5,0],[0,0.25,0]];shape=mxgraph.bpmn.task;whiteSpace=wrap;rectStyle=rounded;size=10;html=1;container=1;expand=0;collapsible=0;taskMarker=service;fillColor=#dae8fc;strokeColor=#6c8ebf;fontSize=14;verticalAlign=middle;sketch=1;curveFitting=1;jiggle=2;fillStyle=solid;" vertex="1" parent="1">
          <mxGeometry x="1972.5" y="5552" width="215" height="125" as="geometry" />
        </mxCell>
        <mxCell id="1LOvOZ-YNYVQgD99sBW3-7" style="edgeStyle=orthogonalEdgeStyle;rounded=0;orthogonalLoop=1;jettySize=auto;html=1;dashed=1;dashPattern=12 12;fontSize=14;sketch=1;curveFitting=1;jiggle=2;" edge="1" parent="1">
          <mxGeometry relative="1" as="geometry">
            <mxPoint x="2171.38" y="5036" as="sourcePoint" />
            <mxPoint x="2285.63" y="5036" as="targetPoint" />
          </mxGeometry>
        </mxCell>
        <mxCell id="1LOvOZ-YNYVQgD99sBW3-8" value="" style="shape=mxgraph.bpmn.data;labelPosition=center;verticalLabelPosition=bottom;align=center;verticalAlign=top;size=15;html=1;fillColor=#f5f5f5;fontColor=#333333;strokeColor=#666666;fontSize=14;sketch=1;curveFitting=1;jiggle=2;" vertex="1" parent="1">
          <mxGeometry x="1922.5" y="5034" width="40" height="60" as="geometry" />
        </mxCell>
        <mxCell id="1LOvOZ-YNYVQgD99sBW3-9" value="&lt;b&gt;Текст&lt;/b&gt;&lt;br&gt;Текст" style="text;html=1;strokeColor=none;fillColor=none;align=center;verticalAlign=middle;whiteSpace=wrap;rounded=0;fontSize=14;sketch=1;curveFitting=1;jiggle=2;" vertex="1" parent="1">
          <mxGeometry x="1907.25" y="5100" width="70.5" height="36" as="geometry" />
        </mxCell>
        <mxCell id="1LOvOZ-YNYVQgD99sBW3-10" value="&lt;font style=&quot;&quot;&gt;&lt;b style=&quot;border-color: var(--border-color);&quot;&gt;Text&lt;br style=&quot;border-color: var(--border-color);&quot;&gt;&lt;/b&gt;&lt;br style=&quot;border-color: var(--border-color);&quot;&gt;Текст&lt;br style=&quot;font-size: 14px;&quot;&gt;&lt;/font&gt;" style="points=[[0.25,0,0],[0.5,0,0],[0.75,0,0],[1,0.25,0],[1,0.5,0],[1,0.75,0],[0.75,1,0],[0.5,1,0],[0.25,1,0],[0,0.75,0],[0,0.5,0],[0,0.25,0]];shape=mxgraph.bpmn.task;whiteSpace=wrap;rectStyle=rounded;size=10;html=1;container=1;expand=0;collapsible=0;taskMarker=user;fontSize=14;sketch=1;curveFitting=1;jiggle=2;fillStyle=solid;" vertex="1" parent="1">
          <mxGeometry x="2251" y="5552" width="215" height="125" as="geometry" />
        </mxCell>
        <UserObject label="&lt;b style=&quot;border-color: var(--border-color);&quot;&gt;Text&lt;br style=&quot;border-color: var(--border-color);&quot;&gt;&lt;/b&gt;&lt;br style=&quot;border-color: var(--border-color);&quot;&gt;Текст" linkTarget="_blank" id="1LOvOZ-YNYVQgD99sBW3-11">
          <mxCell style="points=[[0.25,0,0],[0.5,0,0],[0.75,0,0],[1,0.25,0],[1,0.5,0],[1,0.75,0],[0.75,1,0],[0.5,1,0],[0.25,1,0],[0,0.75,0],[0,0.5,0],[0,0.25,0]];shape=mxgraph.bpmn.task;whiteSpace=wrap;rectStyle=rounded;size=10;html=1;container=1;expand=0;collapsible=0;taskMarker=abstract;isLoopSub=1;fontSize=14;sketch=1;curveFitting=1;jiggle=2;" vertex="1" parent="1">
            <mxGeometry x="1696.5" y="5275" width="215" height="125" as="geometry" />
          </mxCell>
        </UserObject>
        <mxCell id="1LOvOZ-YNYVQgD99sBW3-12" value="&lt;i&gt;&lt;b&gt;Text&lt;/b&gt;&lt;br&gt;&lt;/i&gt;&lt;i style=&quot;&quot;&gt;Текст&lt;br&gt;&lt;/i&gt;" style="text;html=1;strokeColor=none;fillColor=none;align=center;verticalAlign=middle;whiteSpace=wrap;rounded=0;fontSize=14;sketch=1;curveFitting=1;jiggle=2;" vertex="1" parent="1">
          <mxGeometry x="1915" y="4862" width="66.5" height="48" as="geometry" />
        </mxCell>
        <mxCell id="1LOvOZ-YNYVQgD99sBW3-13" value="&lt;i&gt;&lt;b&gt;Text&lt;/b&gt;&lt;br&gt;&lt;/i&gt;&lt;i style=&quot;&quot;&gt;Текст&lt;br&gt;&lt;/i&gt;" style="text;html=1;strokeColor=none;fillColor=none;align=center;verticalAlign=middle;whiteSpace=wrap;rounded=0;fontSize=14;sketch=1;curveFitting=1;jiggle=2;" vertex="1" parent="1">
          <mxGeometry x="1817" y="4862" width="66.5" height="48" as="geometry" />
        </mxCell>
        <mxCell id="1LOvOZ-YNYVQgD99sBW3-14" style="edgeStyle=orthogonalEdgeStyle;rounded=0;orthogonalLoop=1;jettySize=auto;html=1;sketch=1;curveFitting=1;jiggle=2;" edge="1" parent="1">
          <mxGeometry relative="1" as="geometry">
            <mxPoint x="2173" y="5106" as="sourcePoint" />
            <mxPoint x="2284" y="5106" as="targetPoint" />
          </mxGeometry>
        </mxCell>
        <mxCell id="1LOvOZ-YNYVQgD99sBW3-15" value="" style="points=[[0.145,0.145,0],[0.5,0,0],[0.855,0.145,0],[1,0.5,0],[0.855,0.855,0],[0.5,1,0],[0.145,0.855,0],[0,0.5,0]];shape=mxgraph.bpmn.event;html=1;verticalLabelPosition=bottom;labelBackgroundColor=#ffffff;verticalAlign=top;align=center;perimeter=ellipsePerimeter;outlineConnect=0;aspect=fixed;outline=end;symbol=terminate2;fillColor=#f8cecc;strokeColor=#b85450;fontSize=14;sketch=1;curveFitting=1;jiggle=2;fillStyle=solid;" vertex="1" parent="1">
          <mxGeometry x="2020.75" y="4802" width="50" height="50" as="geometry" />
        </mxCell>
        <mxCell id="1LOvOZ-YNYVQgD99sBW3-16" value="&lt;b style=&quot;border-color: var(--border-color); font-size: 14px;&quot;&gt;Text&lt;br style=&quot;border-color: var(--border-color);&quot;&gt;&lt;/b&gt;&lt;br style=&quot;border-color: var(--border-color); font-size: 14px;&quot;&gt;Текст" style="points=[[0.25,0,0],[0.5,0,0],[0.75,0,0],[1,0.25,0],[1,0.5,0],[1,0.75,0],[0.75,1,0],[0.5,1,0],[0.25,1,0],[0,0.75,0],[0,0.5,0],[0,0.25,0]];shape=mxgraph.bpmn.task;whiteSpace=wrap;rectStyle=rounded;size=10;html=1;container=1;expand=0;collapsible=0;taskMarker=send;sketch=1;curveFitting=1;jiggle=2;fillStyle=solid;" vertex="1" parent="1">
          <mxGeometry x="1972.5" y="5275" width="215" height="125" as="geometry" />
        </mxCell>
        <mxCell id="1LOvOZ-YNYVQgD99sBW3-17" value="&lt;b style=&quot;border-color: var(--border-color); font-size: 14px;&quot;&gt;Text&lt;br style=&quot;border-color: var(--border-color);&quot;&gt;&lt;/b&gt;&lt;br style=&quot;border-color: var(--border-color); font-size: 14px;&quot;&gt;Текст" style="points=[[0.25,0,0],[0.5,0,0],[0.75,0,0],[1,0.25,0],[1,0.5,0],[1,0.75,0],[0.75,1,0],[0.5,1,0],[0.25,1,0],[0,0.75,0],[0,0.5,0],[0,0.25,0]];shape=mxgraph.bpmn.task;whiteSpace=wrap;rectStyle=rounded;size=10;html=1;container=1;expand=0;collapsible=0;taskMarker=receive;sketch=1;curveFitting=1;jiggle=2;" vertex="1" parent="1">
          <mxGeometry x="2251" y="5275" width="215" height="125" as="geometry" />
        </mxCell>
        <mxCell id="1LOvOZ-YNYVQgD99sBW3-18" value="" style="points=[[0.25,0.25,0],[0.5,0,0],[0.75,0.25,0],[1,0.5,0],[0.75,0.75,0],[0.5,1,0],[0.25,0.75,0],[0,0.5,0]];shape=mxgraph.bpmn.gateway2;html=1;verticalLabelPosition=bottom;labelBackgroundColor=#ffffff;verticalAlign=top;align=center;perimeter=rhombusPerimeter;outlineConnect=0;outline=end;symbol=general;fillColor=#fff2cc;strokeColor=#d6b656;sketch=1;curveFitting=1;jiggle=2;fillStyle=solid;" vertex="1" parent="1">
          <mxGeometry x="2302.62" y="4804" width="50" height="50" as="geometry" />
        </mxCell>
        <mxCell id="1LOvOZ-YNYVQgD99sBW3-19" value="События: стартовое, промежуточное, завершающее" style="text;html=1;strokeColor=default;fillColor=none;align=center;verticalAlign=middle;whiteSpace=wrap;rounded=0;perimeterSpacing=1;strokeWidth=2;sketch=1;curveFitting=1;jiggle=2;" vertex="1" parent="1">
          <mxGeometry x="1829.75" y="4755" width="237" height="30" as="geometry" />
        </mxCell>
        <mxCell id="1LOvOZ-YNYVQgD99sBW3-20" value="Шлюзы: исключительный, параллельный, неисключительный" style="text;html=1;strokeColor=default;fillColor=none;align=center;verticalAlign=middle;whiteSpace=wrap;rounded=0;perimeterSpacing=1;strokeWidth=2;sketch=1;curveFitting=1;jiggle=2;" vertex="1" parent="1">
          <mxGeometry x="2111.62" y="4755" width="237" height="30" as="geometry" />
        </mxCell>
        <mxCell id="1LOvOZ-YNYVQgD99sBW3-21" value="Ручное действие или задача, выполняемая вручную" style="text;html=1;strokeColor=default;fillColor=none;align=center;verticalAlign=middle;whiteSpace=wrap;rounded=0;perimeterSpacing=1;strokeWidth=2;sketch=1;curveFitting=1;jiggle=2;" vertex="1" parent="1">
          <mxGeometry x="1685.5" y="5486" width="237" height="30" as="geometry" />
        </mxCell>
        <mxCell id="1LOvOZ-YNYVQgD99sBW3-22" value="СОП" style="text;html=1;strokeColor=default;fillColor=none;align=center;verticalAlign=middle;whiteSpace=wrap;rounded=0;perimeterSpacing=1;strokeWidth=2;sketch=1;curveFitting=1;jiggle=2;" vertex="1" parent="1">
          <mxGeometry x="1961.5" y="5486" width="237" height="30" as="geometry" />
        </mxCell>
        <mxCell id="1LOvOZ-YNYVQgD99sBW3-23" value="Пользовательское действие или задача" style="text;html=1;strokeColor=default;fillColor=none;align=center;verticalAlign=middle;whiteSpace=wrap;rounded=0;perimeterSpacing=1;strokeWidth=2;sketch=1;curveFitting=1;jiggle=2;" vertex="1" parent="1">
          <mxGeometry x="2238" y="5486" width="237" height="30" as="geometry" />
        </mxCell>
        <mxCell id="1LOvOZ-YNYVQgD99sBW3-24" value="Подпроцесс, отображаемый в свёрнутом виде" style="text;html=1;strokeColor=default;fillColor=none;align=center;verticalAlign=middle;whiteSpace=wrap;rounded=1;perimeterSpacing=1;strokeWidth=2;sketch=1;curveFitting=1;jiggle=2;glass=0;" vertex="1" parent="1">
          <mxGeometry x="1683" y="5212" width="237" height="30" as="geometry" />
        </mxCell>
        <mxCell id="1LOvOZ-YNYVQgD99sBW3-25" value="Задача, содержащая отправку сообщения" style="text;html=1;strokeColor=default;fillColor=none;align=center;verticalAlign=middle;whiteSpace=wrap;rounded=0;perimeterSpacing=1;strokeWidth=2;sketch=1;curveFitting=1;jiggle=2;" vertex="1" parent="1">
          <mxGeometry x="1961.5" y="5212" width="237" height="30" as="geometry" />
        </mxCell>
        <mxCell id="1LOvOZ-YNYVQgD99sBW3-26" value="Задача, содержащая получение сообщения" style="text;html=1;strokeColor=default;fillColor=none;align=center;verticalAlign=middle;whiteSpace=wrap;rounded=0;perimeterSpacing=1;strokeWidth=2;sketch=1;curveFitting=1;jiggle=2;" vertex="1" parent="1">
          <mxGeometry x="2240" y="5212" width="237" height="30" as="geometry" />
        </mxCell>
        <mxCell id="1LOvOZ-YNYVQgD99sBW3-27" value="Поток сообщений" style="text;html=1;strokeColor=default;fillColor=none;align=center;verticalAlign=middle;whiteSpace=wrap;rounded=0;perimeterSpacing=1;strokeWidth=2;sketch=1;curveFitting=1;jiggle=2;" vertex="1" parent="1">
          <mxGeometry x="2110" y="4987" width="237" height="30" as="geometry" />
        </mxCell>
        <mxCell id="1LOvOZ-YNYVQgD99sBW3-28" value="Поток операций" style="text;html=1;strokeColor=default;fillColor=none;align=center;verticalAlign=middle;whiteSpace=wrap;rounded=0;perimeterSpacing=1;strokeWidth=2;sketch=1;curveFitting=1;jiggle=2;" vertex="1" parent="1">
          <mxGeometry x="2110" y="5056" width="237" height="30" as="geometry" />
        </mxCell>
        <mxCell id="1LOvOZ-YNYVQgD99sBW3-29" value="Объект данных, документ" style="text;html=1;strokeColor=default;fillColor=none;align=center;verticalAlign=middle;whiteSpace=wrap;rounded=0;perimeterSpacing=1;strokeWidth=2;sketch=1;curveFitting=1;jiggle=2;" vertex="1" parent="1">
          <mxGeometry x="1824" y="4987" width="237" height="30" as="geometry" />
        </mxCell>
      </root>
    </mxGraphModel>
  </diagram>
</mxfile>
